<?xml version="1.0" encoding="UTF-8"?>
<svg viewBox="0 0 1015 300" version="1.1" xmlns="http://www.w3.org/2000/svg" xmlns:xlink="http://www.w3.org/1999/xlink">
    <!-- Generator: Sketch 61.2 (89653) - https://sketch.com -->
    <title>dashie-branding</title>
    <desc>Created with Sketch.</desc>
    <g id="Tiles" stroke="none" stroke-width="1" fill="none" fill-rule="evenodd">
        <g transform="translate(555.000000, 0.000000)" id="Rectangle">
            <rect fill="#3498D6" x="0" y="0" width="140" height="140" rx="8"></rect>
            <rect fill="#FCE972" x="160" y="0" width="140" height="300" rx="8"></rect>
            <rect fill="#3498D6" x="0" y="160" width="140" height="140" rx="8"></rect>
            <rect fill="#ED4743" x="320" y="0" width="140" height="140" rx="8"></rect>
            <rect fill="#ED4743" x="320" y="160" width="140" height="140" rx="8"></rect>
        </g>
        <path d="M55.62,219.16 C63.9,219.16 70.74,218.62 76.14,217.54 C81.54,216.46 85.98,215.32 89.46,214.12 L89.46,214.12 L89.46,77.32 L77.76,79.48 L77.76,129.52 C75.72,127.96 72.45,126.31 67.95,124.57 C63.45,122.83 58.14,121.96 52.02,121.96 C45.3,121.96 39.33,123.16 34.11,125.56 C28.89,127.96 24.48,131.32 20.88,135.64 C17.28,139.96 14.55,145.09 12.69,151.03 C10.83,156.97 9.9,163.48 9.9,170.56 C9.9,178.12 11.01,184.9 13.23,190.9 C15.45,196.9 18.57,202 22.59,206.2 C26.61,210.4 31.41,213.61 36.99,215.83 C42.57,218.05 48.78,219.16 55.62,219.16 Z M55.8,208.54 C45.72,208.54 37.62,205.27 31.5,198.73 C25.38,192.19 22.32,182.8 22.32,170.56 C22.32,165.4 22.86,160.51 23.94,155.89 C25.02,151.27 26.76,147.25 29.16,143.83 C31.56,140.41 34.71,137.68 38.61,135.64 C42.51,133.6 47.34,132.58 53.1,132.58 C55.86,132.58 58.5,132.85 61.02,133.39 C63.54,133.93 65.88,134.62 68.04,135.46 C70.2,136.3 72.09,137.2 73.71,138.16 C75.33,139.12 76.68,140.02 77.76,140.86 L77.76,140.86 L77.76,206.02 C75.96,206.62 73.29,207.19 69.75,207.73 C66.21,208.27 61.56,208.54 55.8,208.54 Z M147.78,218.98 C151.62,218.98 155.37,218.83 159.03,218.53 C162.69,218.23 166.02,217.84 169.02,217.36 C172.02,216.88 174.66,216.43 176.94,216.01 C179.22,215.59 180.96,215.2 182.16,214.84 L182.16,214.84 L182.16,156.16 C182.16,151.24 181.56,146.68 180.36,142.48 C179.16,138.28 177.24,134.65 174.6,131.59 C171.96,128.53 168.51,126.13 164.25,124.39 C159.99,122.65 154.8,121.78 148.68,121.78 C142.68,121.78 137.55,122.2 133.29,123.04 C129.03,123.88 125.88,124.78 123.84,125.74 L123.84,125.74 L125.46,136 C127.02,135.4 129.48,134.62 132.84,133.66 C136.2,132.7 141.3,132.22 148.14,132.22 C152.94,132.22 156.81,132.97 159.75,134.47 C162.69,135.97 164.97,137.95 166.59,140.41 C168.21,142.87 169.26,145.63 169.74,148.69 C170.22,151.75 170.46,154.9 170.46,158.14 L170.46,158.14 L170.46,163.9 C169.98,163.66 169.11,163.39 167.85,163.09 C166.59,162.79 165.09,162.49 163.35,162.19 C161.61,161.89 159.81,161.65 157.95,161.47 C156.09,161.29 154.32,161.2 152.64,161.2 C147,161.2 141.78,161.74 136.98,162.82 C132.18,163.9 128.04,165.61 124.56,167.95 C121.08,170.29 118.38,173.26 116.46,176.86 C114.54,180.46 113.58,184.78 113.58,189.82 C113.58,195.1 114.45,199.57 116.19,203.23 C117.93,206.89 120.33,209.89 123.39,212.23 C126.45,214.57 130.05,216.28 134.19,217.36 C138.33,218.44 142.86,218.98 147.78,218.98 Z M149.76,208.54 C146.04,208.54 142.71,208.21 139.77,207.55 C136.83,206.89 134.31,205.84 132.21,204.4 C130.11,202.96 128.49,201.04 127.35,198.64 C126.21,196.24 125.64,193.3 125.64,189.82 C125.64,185.86 126.48,182.68 128.16,180.28 C129.84,177.88 132,175.99 134.64,174.61 C137.28,173.23 140.16,172.33 143.28,171.91 C146.4,171.49 149.4,171.28 152.28,171.28 C157.32,171.28 161.28,171.61 164.16,172.27 C167.04,172.93 169.14,173.56 170.46,174.16 L170.46,174.16 L170.46,206.92 C168.06,207.4 165.15,207.79 161.73,208.09 C158.31,208.39 154.32,208.54 149.76,208.54 Z M231.12,219.16 C242.04,219.16 250.65,217 256.95,212.68 C263.25,208.36 266.4,202 266.4,193.6 C266.4,189.16 265.62,185.47 264.06,182.53 C262.5,179.59 260.46,177.07 257.94,174.97 C255.42,172.87 252.51,171.07 249.21,169.57 C245.91,168.07 242.46,166.6 238.86,165.16 C235.38,163.72 232.29,162.4 229.59,161.2 C226.89,160 224.61,158.71 222.75,157.33 C220.89,155.95 219.48,154.36 218.52,152.56 C217.56,150.76 217.08,148.6 217.08,146.08 C217.08,143.56 217.62,141.43 218.7,139.69 C219.78,137.95 221.22,136.51 223.02,135.37 C224.82,134.23 226.89,133.39 229.23,132.85 C231.57,132.31 234.06,132.04 236.7,132.04 C243.3,132.04 248.31,132.64 251.73,133.84 C255.15,135.04 257.58,136 259.02,136.72 L259.02,136.72 L261.72,126.28 C260.04,125.44 257.13,124.48 252.99,123.4 C248.85,122.32 243.6,121.78 237.24,121.78 C227.28,121.78 219.45,124.12 213.75,128.8 C208.05,133.48 205.2,139.6 205.2,147.16 C205.2,151.12 205.92,154.48 207.36,157.24 C208.8,160 210.72,162.37 213.12,164.35 C215.52,166.33 218.28,168.07 221.4,169.57 C224.52,171.07 227.82,172.54 231.3,173.98 C235.62,175.78 239.25,177.34 242.19,178.66 C245.13,179.98 247.5,181.36 249.3,182.8 C251.1,184.24 252.39,185.86 253.17,187.66 C253.95,189.46 254.34,191.62 254.34,194.14 C254.34,199.42 252.15,203.17 247.77,205.39 C243.39,207.61 237.84,208.72 231.12,208.72 C227.4,208.72 224.13,208.48 221.31,208 C218.49,207.52 216.06,206.95 214.02,206.29 C211.98,205.63 210.36,205.03 209.16,204.49 C207.96,203.95 207.18,203.56 206.82,203.32 L206.82,203.32 L203.76,213.94 C205.2,214.66 208.08,215.71 212.4,217.09 C216.72,218.47 222.96,219.16 231.12,219.16 Z M300.78,217 L300.78,136.9 C301.26,136.66 302.31,136.3 303.93,135.82 C305.55,135.34 307.38,134.89 309.42,134.47 C311.46,134.05 313.65,133.66 315.99,133.3 C318.33,132.94 320.52,132.76 322.56,132.76 C327.84,132.76 332.22,133.39 335.7,134.65 C339.18,135.91 341.97,137.98 344.07,140.86 C346.17,143.74 347.67,147.46 348.57,152.02 C349.47,156.58 349.92,162.16 349.92,168.76 L349.92,168.76 L349.92,217 L361.62,217 L361.62,164.98 C361.62,158.62 361.05,152.8 359.91,147.52 C358.77,142.24 356.76,137.71 353.88,133.93 C351,130.15 347.16,127.24 342.36,125.2 C337.56,123.16 331.56,122.14 324.36,122.14 C320.4,122.14 316.44,122.53 312.48,123.31 C308.52,124.09 304.62,125.2 300.78,126.64 L300.78,126.64 L300.78,77.32 L289.08,79.48 L289.08,217 L300.78,217 Z M397.26,104.86 C399.66,104.86 401.7,104.05 403.38,102.43 C405.06,100.81 405.9,98.62 405.9,95.86 C405.9,93.1 405.06,90.91 403.38,89.29 C401.7,87.67 399.66,86.86 397.26,86.86 C394.86,86.86 392.82,87.67 391.14,89.29 C389.46,90.91 388.62,93.1 388.62,95.86 C388.62,98.62 389.46,100.81 391.14,102.43 C392.82,104.05 394.86,104.86 397.26,104.86 Z M403.2,217 L403.2,123.94 L391.5,123.94 L391.5,217 L403.2,217 Z M474.3,218.98 C480.54,218.98 485.97,218.32 490.59,217 C495.21,215.68 498.36,214.54 500.04,213.58 L500.04,213.58 L497.88,203.5 C496.2,204.34 493.5,205.36 489.78,206.56 C486.06,207.76 481.02,208.36 474.66,208.36 C463.14,208.36 454.74,205.3 449.46,199.18 C444.18,193.06 441.36,184.3 441,172.9 L441,172.9 L506.34,172.9 C506.46,172.06 506.55,171.16 506.61,170.2 C506.67,169.24 506.7,168.28 506.7,167.32 C506.7,151.84 503.31,140.38 496.53,132.94 C489.75,125.5 480.66,121.78 469.26,121.78 C464.1,121.78 459.09,122.77 454.23,124.75 C449.37,126.73 445.05,129.76 441.27,133.84 C437.49,137.92 434.43,142.99 432.09,149.05 C429.75,155.11 428.58,162.22 428.58,170.38 C428.58,177.46 429.42,183.97 431.1,189.91 C432.78,195.85 435.48,200.98 439.2,205.3 C442.92,209.62 447.66,212.98 453.42,215.38 C459.18,217.78 466.14,218.98 474.3,218.98 Z M494.64,163 L441.36,163 C441.6,158.92 442.41,155.02 443.79,151.3 C445.17,147.58 447.09,144.31 449.55,141.49 C452.01,138.67 454.89,136.42 458.19,134.74 C461.49,133.06 465.24,132.22 469.44,132.22 C477.36,132.22 483.48,134.92 487.8,140.32 C492.12,145.72 494.4,153.28 494.64,163 L494.64,163 Z" id="dashie" fill="#000000" fill-rule="nonzero"></path>
    </g>
</svg>
