<?xml version="1.0" encoding="UTF-8"?>
<svg width="1342px" height="295px" viewBox="0 0 1342 295" version="1.1" xmlns="http://www.w3.org/2000/svg" xmlns:xlink="http://www.w3.org/1999/xlink">
    <!-- Generator: Sketch 61.2 (89653) - https://sketch.com -->
    <title>logoBrandingLG</title>
    <desc>Created with Sketch.</desc>
    <g id="Tiles" stroke="none" stroke-width="1" fill="none" fill-rule="evenodd">
        <g id="logo-tiles" transform="translate(882.000000, -5.000000)">
            <rect id="Rectangle" fill="#3498D6" x="0" y="0" width="140" height="140" rx="8"></rect>
            <rect id="Rectangle" fill="#FCE972" x="160" y="0" width="140" height="300" rx="8"></rect>
            <rect id="Rectangle" fill="#3498D6" x="0" y="160" width="140" height="140" rx="8"></rect>
            <rect id="Rectangle" fill="#ED4743" x="320" y="0" width="140" height="140" rx="8"></rect>
            <rect id="Rectangle" fill="#ED4743" x="320" y="160" width="140" height="140" rx="8"></rect>
        </g>
        <path d="M80.34,245.12 C92.3,245.12 102.18,244.34 109.98,242.78 C117.78,241.22 124.193333,239.573333 129.22,237.84 L129.22,237.84 L129.22,40.24 L112.32,43.36 L112.32,115.64 C109.373333,113.386667 104.65,111.003333 98.15,108.49 C91.65,105.976667 83.98,104.72 75.14,104.72 C65.4333333,104.72 56.81,106.453333 49.27,109.92 C41.73,113.386667 35.36,118.24 30.16,124.48 C24.96,130.72 21.0166667,138.13 18.33,146.71 C15.6433333,155.29 14.3,164.693333 14.3,174.92 C14.3,185.84 15.9033333,195.633333 19.11,204.3 C22.3166667,212.966667 26.8233333,220.333333 32.63,226.4 C38.4366667,232.466667 45.37,237.103333 53.43,240.31 C61.49,243.516667 70.46,245.12 80.34,245.12 Z M80.6,229.78 C66.04,229.78 54.34,225.056667 45.5,215.61 C36.66,206.163333 32.24,192.6 32.24,174.92 C32.24,167.466667 33.02,160.403333 34.58,153.73 C36.14,147.056667 38.6533333,141.25 42.12,136.31 C45.5866667,131.37 50.1366667,127.426667 55.77,124.48 C61.4033333,121.533333 68.38,120.06 76.7,120.06 C80.6866667,120.06 84.5,120.45 88.14,121.23 C91.78,122.01 95.16,123.006667 98.28,124.22 C101.4,125.433333 104.13,126.733333 106.47,128.12 C108.81,129.506667 110.76,130.806667 112.32,132.02 L112.32,132.02 L112.32,226.14 C109.72,227.006667 105.863333,227.83 100.75,228.61 C95.6366667,229.39 88.92,229.78 80.6,229.78 Z M213.46,244.86 C219.006667,244.86 224.423333,244.643333 229.71,244.21 C234.996667,243.776667 239.806667,243.213333 244.14,242.52 C248.473333,241.826667 252.286667,241.176667 255.58,240.57 C258.873333,239.963333 261.386667,239.4 263.12,238.88 L263.12,238.88 L263.12,154.12 C263.12,147.013333 262.253333,140.426667 260.52,134.36 C258.786667,128.293333 256.013333,123.05 252.2,118.63 C248.386667,114.21 243.403333,110.743333 237.25,108.23 C231.096667,105.716667 223.6,104.46 214.76,104.46 C206.093333,104.46 198.683333,105.066667 192.53,106.28 C186.376667,107.493333 181.826667,108.793333 178.88,110.18 L178.88,110.18 L181.22,125 C183.473333,124.133333 187.026667,123.006667 191.88,121.62 C196.733333,120.233333 204.1,119.54 213.98,119.54 C220.913333,119.54 226.503333,120.623333 230.75,122.79 C234.996667,124.956667 238.29,127.816667 240.63,131.37 C242.97,134.923333 244.486667,138.91 245.18,143.33 C245.873333,147.75 246.22,152.3 246.22,156.98 L246.22,156.98 L246.22,165.3 C245.526667,164.953333 244.27,164.563333 242.45,164.13 C240.63,163.696667 238.463333,163.263333 235.95,162.83 C233.436667,162.396667 230.836667,162.05 228.15,161.79 C225.463333,161.53 222.906667,161.4 220.48,161.4 C212.333333,161.4 204.793333,162.18 197.86,163.74 C190.926667,165.3 184.946667,167.77 179.92,171.15 C174.893333,174.53 170.993333,178.82 168.22,184.02 C165.446667,189.22 164.06,195.46 164.06,202.74 C164.06,210.366667 165.316667,216.823333 167.83,222.11 C170.343333,227.396667 173.81,231.73 178.23,235.11 C182.65,238.49 187.85,240.96 193.83,242.52 C199.81,244.08 206.353333,244.86 213.46,244.86 Z M216.32,229.78 C210.946667,229.78 206.136667,229.303333 201.89,228.35 C197.643333,227.396667 194.003333,225.88 190.97,223.8 C187.936667,221.72 185.596667,218.946667 183.95,215.48 C182.303333,212.013333 181.48,207.766667 181.48,202.74 C181.48,197.02 182.693333,192.426667 185.12,188.96 C187.546667,185.493333 190.666667,182.763333 194.48,180.77 C198.293333,178.776667 202.453333,177.476667 206.96,176.87 C211.466667,176.263333 215.8,175.96 219.96,175.96 C227.24,175.96 232.96,176.436667 237.12,177.39 C241.28,178.343333 244.313333,179.253333 246.22,180.12 L246.22,180.12 L246.22,227.44 C242.753333,228.133333 238.55,228.696667 233.61,229.13 C228.67,229.563333 222.906667,229.78 216.32,229.78 Z M333.84,245.12 C349.613333,245.12 362.05,242 371.15,235.76 C380.25,229.52 384.8,220.333333 384.8,208.2 C384.8,201.786667 383.673333,196.456667 381.42,192.21 C379.166667,187.963333 376.22,184.323333 372.58,181.29 C368.94,178.256667 364.736667,175.656667 359.97,173.49 C355.203333,171.323333 350.22,169.2 345.02,167.12 C339.993333,165.04 335.53,163.133333 331.63,161.4 C327.73,159.666667 324.436667,157.803333 321.75,155.81 C319.063333,153.816667 317.026667,151.52 315.64,148.92 C314.253333,146.32 313.56,143.2 313.56,139.56 C313.56,135.92 314.34,132.843333 315.9,130.33 C317.46,127.816667 319.54,125.736667 322.14,124.09 C324.74,122.443333 327.73,121.23 331.11,120.45 C334.49,119.67 338.086667,119.28 341.9,119.28 C351.433333,119.28 358.67,120.146667 363.61,121.88 C368.55,123.613333 372.06,125 374.14,126.04 L374.14,126.04 L378.04,110.96 C375.613333,109.746667 371.41,108.36 365.43,106.8 C359.45,105.24 351.866667,104.46 342.68,104.46 C328.293333,104.46 316.983333,107.84 308.75,114.6 C300.516667,121.36 296.4,130.2 296.4,141.12 C296.4,146.84 297.44,151.693333 299.52,155.68 C301.6,159.666667 304.373333,163.09 307.84,165.95 C311.306667,168.81 315.293333,171.323333 319.8,173.49 C324.306667,175.656667 329.073333,177.78 334.1,179.86 C340.34,182.46 345.583333,184.713333 349.83,186.62 C354.076667,188.526667 357.5,190.52 360.1,192.6 C362.7,194.68 364.563333,197.02 365.69,199.62 C366.816667,202.22 367.38,205.34 367.38,208.98 C367.38,216.606667 364.216667,222.023333 357.89,225.23 C351.563333,228.436667 343.546667,230.04 333.84,230.04 C328.466667,230.04 323.743333,229.693333 319.67,229 C315.596667,228.306667 312.086667,227.483333 309.14,226.53 C306.193333,225.576667 303.853333,224.71 302.12,223.93 C300.386667,223.15 299.26,222.586667 298.74,222.24 L298.74,222.24 L294.32,237.58 C296.4,238.62 300.56,240.136667 306.8,242.13 C313.04,244.123333 322.053333,245.12 333.84,245.12 Z M434.46,242 L434.46,126.3 C435.153333,125.953333 436.67,125.433333 439.01,124.74 C441.35,124.046667 443.993333,123.396667 446.94,122.79 C449.886667,122.183333 453.05,121.62 456.43,121.1 C459.81,120.58 462.973333,120.32 465.92,120.32 C473.546667,120.32 479.873333,121.23 484.9,123.05 C489.926667,124.87 493.956667,127.86 496.99,132.02 C500.023333,136.18 502.19,141.553333 503.49,148.14 C504.79,154.726667 505.44,162.786667 505.44,172.32 L505.44,172.32 L505.44,242 L522.34,242 L522.34,166.86 C522.34,157.673333 521.516667,149.266667 519.87,141.64 C518.223333,134.013333 515.32,127.47 511.16,122.01 C507,116.55 501.453333,112.346667 494.52,109.4 C487.586667,106.453333 478.92,104.98 468.52,104.98 C462.8,104.98 457.08,105.543333 451.36,106.67 C445.64,107.796667 440.006667,109.4 434.46,111.48 L434.46,111.48 L434.46,40.24 L417.56,43.36 L417.56,242 L434.46,242 Z M573.82,80.02 C577.286667,80.02 580.233333,78.85 582.66,76.51 C585.086667,74.17 586.3,71.0066667 586.3,67.02 C586.3,63.0333333 585.086667,59.87 582.66,57.53 C580.233333,55.19 577.286667,54.02 573.82,54.02 C570.353333,54.02 567.406667,55.19 564.98,57.53 C562.553333,59.87 561.34,63.0333333 561.34,67.02 C561.34,71.0066667 562.553333,74.17 564.98,76.51 C567.406667,78.85 570.353333,80.02 573.82,80.02 Z M582.4,242 L582.4,107.58 L565.5,107.58 L565.5,242 L582.4,242 Z M685.1,244.86 C694.113333,244.86 701.956667,243.906667 708.63,242 C715.303333,240.093333 719.853333,238.446667 722.28,237.06 L722.28,237.06 L719.16,222.5 C716.733333,223.713333 712.833333,225.186667 707.46,226.92 C702.086667,228.653333 694.806667,229.52 685.62,229.52 C668.98,229.52 656.846667,225.1 649.22,216.26 C641.593333,207.42 637.52,194.766667 637,178.3 L637,178.3 L731.38,178.3 C731.553333,177.086667 731.683333,175.786667 731.77,174.4 C731.856667,173.013333 731.9,171.626667 731.9,170.24 C731.9,147.88 727.003333,131.326667 717.21,120.58 C707.416667,109.833333 694.286667,104.46 677.82,104.46 C670.366667,104.46 663.13,105.89 656.11,108.75 C649.09,111.61 642.85,115.986667 637.39,121.88 C631.93,127.773333 627.51,135.096667 624.13,143.85 C620.75,152.603333 619.06,162.873333 619.06,174.66 C619.06,184.886667 620.273333,194.29 622.7,202.87 C625.126667,211.45 629.026667,218.86 634.4,225.1 C639.773333,231.34 646.62,236.193333 654.94,239.66 C663.26,243.126667 673.313333,244.86 685.1,244.86 Z M714.48,164 L637.52,164 C637.866667,158.106667 639.036667,152.473333 641.03,147.1 C643.023333,141.726667 645.796667,137.003333 649.35,132.93 C652.903333,128.856667 657.063333,125.606667 661.83,123.18 C666.596667,120.753333 672.013333,119.54 678.08,119.54 C689.52,119.54 698.36,123.44 704.6,131.24 C710.84,139.04 714.133333,149.96 714.48,164 L714.48,164 Z" id="branding-lg" fill="#000000" fill-rule="nonzero"></path>
    </g>
</svg>